<svg xmlns="http://www.w3.org/2000/svg" width="1024" height="677" fill="none" viewBox="0 0 1024 677"><g clip-path="url(#a)"><rect width="1024" height="677" fill="#32302f" rx="40"/><g filter="url(#b)"><path fill="#797673" d="M355.38-152.142 901.819-5.724 670.746 856.652l-546.44-146.417z"/></g><g fill="#faeade" clip-path="url(#c)" opacity=".05"><path d="M234.779-194.249c-2.17 12.459-2.025 12.314-20.832 21.731-10.561 5.36-11.863 6.519-15.624 13.618-2.749 5.215-4.485 11.879-5.497 19.557-2.315 18.689-3.906 25.063-7.957 31.582-3.761 5.795-3.906 7.244-4.051 25.063-.144 17.385-.434 19.413-3.906 25.498-2.748 4.925-4.05 9.851-4.774 18.833-.578 6.664-1.591 12.749-2.314 13.473-2.46 2.463-1.736 52.154.723 60.991 2.893 9.706 5.931 11.735 18.807 12.604 5.642.435 11.428 1.593 13.02 2.463 3.906 2.463 15.479-2.463 18.951-8.113 1.447-2.173 4.774-7.533 7.378-11.735 2.749-4.2 5.497-10.72 6.221-14.487 4.34-22.89 6.365-27.09 17.649-34.045 5.931-3.911 6.51-4.78 9.693-16.37 3.182-11.3 3.761-12.46 7.522-13.184 7.089-1.448 9.982-5.94 11.429-19.123.723-6.519 1.736-12.459 2.315-13.328.434-.869 1.302-4.925 2.025-8.982 3.617-23.759 6.51-37.377 9.548-43.751 1.881-4.057 4.051-11.735 4.774-17.095.723-5.215 1.736-10.141 2.17-11.01 1.157-1.739-3.761-12.604-8.391-18.834-2.893-3.911-3.761-6.809-3.761-12.314 0-14.921 1.881-13.907-27.487-13.907h-25.606zm572.591 26.801c-2.026 1.594-5.787 2.898-8.68 2.898-5.498 0-9.404 3.042-16.348 13.038-4.484 6.664-8.68 9.272-21.555 13.763-8.825 3.187-18.807 12.893-20.109 19.847-1.012 5.071-4.918 18.834-6.799 23.614-5.787 15.212-7.233 28.54-3.472 33.466 1.302 1.738 2.17 6.374 2.17 13.618 0 12.314.579 13.618 6.076 15.066 2.459.58 4.919 2.753 6.365 5.36 2.17 4.492 3.183 4.637 9.693 2.029 2.17-.87 2.459 0 2.459 9.127 0 11.3 1.592 16.805 6.076 21.586 4.196 4.49 5.498 4.201 12.586-2.463 3.328-3.187 7.378-5.795 8.97-5.795 6.076 0 14.177-6.23 17.649-13.763 5.787-12.314 7.233-16.95 8.246-28.974 1.013-10.431 5.787-32.017 7.957-35.639.578-.724 1.446-4.346 2.17-8.257 3.182-17.24 4.774-22.166 11.139-35.059 6.799-13.473 6.799-14.053 6.51-25.932-.434-12.025-2.459-17.675-7.233-19.703-2.749-1.014-7.234 1.594-8.246 5.071-1.158 3.621-6.51 3.911-6.51.289 0-2.607-2.604-6.084-4.485-6.084-.434 0-2.604 1.304-4.629 2.897M50.329-137.894c-1.88 1.449-3.617 1.594-6.655.58-2.314-.87-6.799-1.015-10.271-.58-3.327.58-9.259 1.159-13.165 1.449-4.484.289-7.812 1.448-8.824 2.897-1.013 1.304-3.617 2.318-5.932 2.318-5.497 0-11.284 3.332-23.146 13.039-15.48 12.893-19.386 16.95-19.386 19.992 0 1.738-.578 3.477-1.446 3.911s-1.447 2.898-1.447 5.216c0 4.636-5.063 15.79-7.233 15.79-1.881 0-2.604 3.333-4.34 18.834-1.302 11.88-2.17 14.343-5.642 18.11-6.944 7.533-8.825 11.879-9.838 22.744C-67.43-7.799-69.31.314-71.19 4.37c-3.327 7.678-3.472 13.908-.868 28.685 1.302 6.954 2.025 7.823 9.403 11.88 3.183 1.738 3.906 3.041 3.906 7.822 0 3.043-.723 6.085-1.446 6.52-.724.434-1.447 2.028-1.447 3.477s-1.302 4.346-2.893 6.374c-4.196 5.215-3.617 10.576 1.446 15.79 3.038 2.898 4.34 5.65 4.34 8.838 0 5.65 1.447 7.968 5.932 10.286 2.459 1.159 3.761 3.332 4.195 6.809 1.157 7.968 12.297 21.586 17.794 21.586 1.88 0 5.642 1.738 8.39 3.766 4.485 3.477 5.787 3.622 15.335 3.043 15.046-1.159 15.48-.58 14.612 17.24-.579 9.126-1.592 15.935-3.183 18.688-1.302 2.318-2.315 5.07-2.315 5.94 0 .724-1.446 4.346-3.182 7.968-2.749 5.36-3.328 9.851-4.051 27.815-.579 13.328-1.591 22.021-2.604 23.035-2.893 2.897-2.025 10.575 1.591 13.907 1.881 1.739 4.34 3.188 5.642 3.188 1.158 0 4.774 2.028 7.812 4.491 3.762 2.897 6.51 4.056 8.536 3.476 1.591-.434 4.918-1.159 7.378-1.738 4.629-.724 4.629-.724 6.944 7.678 4.484 16.081 3.761 15.357 19.674 17.819 7.089 1.159 8.391 1.015 11.284-1.738 1.736-1.594 3.183-3.767 3.183-4.781s1.591-3.766 3.617-6.084 5.497-7.968 7.956-12.604c4.63-8.693 9.548-16.516 12.152-18.834 2.749-2.462 7.523-9.851 10.995-16.66 1.736-3.622 4.629-8.113 6.365-10.141 5.064-5.65 9.838-18.543 10.706-28.54.868-10.72-2.604-24.918-7.668-31.582-2.893-3.766-6.365-14.342-12.152-36.652-1.591-5.65-5.063-9.851-10.56-12.749-9.838-5.07-10.561-10.72-4.485-36.073 4.919-20.861 6.22-51.574 2.46-58.963-1.303-2.607-7.957-10.286-14.901-16.95L56.26-15.767l-.434-10.286c-.578-11.59 2.026-17.82 11.284-27.96 12.731-13.618 18.807-28.395 18.807-45.055 0-9.272-.723-12.314-3.617-17.53-2.025-3.332-3.616-7.388-3.616-8.837s-2.749-4.781-6.076-7.533c-7.234-5.795-17.794-8.113-22.279-4.926m857.295 52.299c-2.026 1.159-4.919 2.607-6.51 3.477-3.906 1.738-8.391 6.519-16.203 16.805-8.101 10.72-10.705 15.936-11.284 21.586-1.591 15.646-4.051 25.062-7.667 29.553-7.812 9.852-7.812 9.707-5.932 13.908 1.447 3.187 1.302 4.201-.868 6.664-1.446 1.594-3.761 2.898-5.208 2.898-1.88 0-4.195 2.897-7.233 8.982-6.365 12.604-9.982 17.095-13.743 17.095-1.736 0-6.51 1.738-10.561 3.766-5.353 2.753-7.378 4.781-7.378 6.954 0 7.388-3.183 14.197-7.957 16.95-2.604 1.594-5.208 4.346-5.786 6.085-1.158 3.187-1.158 3.187-1.736-.29-.434-2.173.144-4.201 1.446-5.215 2.749-2.029 8.246-11.01 8.246-13.618 0-1.884 5.064-12.894 10.995-23.76 1.157-2.172 2.749-7.243 3.327-11.3.724-4.056 1.881-7.967 2.894-8.981.868-.87 1.591-5.795 1.591-10.72 0-11.156-2.749-16.371-8.535-16.371-3.183 0-4.63 1.159-7.089 6.374-1.736 3.477-3.183 7.244-3.183 8.547s-2.314 4.057-4.918 6.085c-5.498 4.201-10.416 13.038-11.863 21.006-1.736 10.576-5.642 22.166-8.535 25.208-5.353 5.795-7.523 10.141-8.536 17.24-.868 6.084-1.446 6.809-3.906 6.084-3.906-1.303-8.101 4.202-9.403 12.025-.434 3.332-1.447 6.519-2.17 6.954s-1.302 4.635-1.302 9.271c0 7.099.434 8.838 2.893 10.141 2.17 1.159 3.617 1.015 5.932-.434 3.761-2.753 8.535-12.17 8.535-16.95 0-5.216 1.157-6.085 5.208-3.332 4.485 2.897 6.799 1.883 10.271-4.781 4.774-9.417 6.076-7.823 5.642 7.244-.289 11.01.145 15.066 2.315 19.847 1.736 3.912 2.604 9.417 2.604 15.936 0 5.36.723 10.286 1.447 10.72.868.435 1.446 2.898 1.446 5.361s1.447 6.664 3.038 9.416c2.894 4.636 3.038 5.795 1.592 16.805-1.158 8.983-1.013 15.647.434 27.092 1.157 8.402 2.025 15.356 2.025 15.501.145.29 2.315 2.897 5.063 5.795 3.906 4.346 5.064 7.243 5.932 14.052 1.88 15.646 10.705 18.978 15.624 5.94 1.446-4.056 3.038-8.837 3.472-10.865s2.025-5.216 3.472-7.099c1.446-1.883 5.352-11.88 8.535-22.455 3.327-10.431 6.51-20.137 7.378-21.441.723-1.449 1.302-4.491 1.302-6.664 0-4.926 6.51-14.488 12.731-18.979 2.314-1.593 4.774-4.78 5.208-6.809.578-2.173 2.025-4.78 3.038-5.939 1.157-1.159 2.17-3.332 2.17-4.781 0-5.215 10.271-5.505 12.152-.29 3.038 8.548 3.472 11.155 2.314 18.109-1.736 11.155-3.616 17.819-8.68 30.713-6.076 15.646-7.233 17.964-11.718 23.904-4.195 5.65-10.994 24.338-13.02 35.204-.578 3.766-3.182 11.01-5.497 15.791-4.774 9.561-5.497 14.632-2.749 21.006 1.013 2.173 2.17 13.183 2.604 24.339l.724 20.426 5.063 6.375c4.919 6.229 4.919 6.519 5.063 20.427 0 13.473 1.592 18.688 5.353 18.688 2.315 0 15.479-13.183 16.492-16.515 1.013-3.622 9.259-17.095 11.284-18.544 3.183-2.173 3.183.869 0 13.473-4.34 16.516-6.799 21.586-13.02 27.236-4.629 4.346-4.919 5.071-4.919 14.632 0 5.505-.578 10.286-1.302 10.721-.578.434-1.591 7.678-2.17 16.081-.578 8.402-1.591 16.95-2.459 19.123-2.17 5.65-2.459 44.475-.289 46.938.868 1.159 2.025 5.94 2.604 10.721 1.446 12.169 4.05 16.66 9.548 16.66 6.654 0 8.824 6.664 8.824 27.526 0 12.748.579 17.529 2.315 20.571 3.038 5.361 4.919 5.071 9.259-1.159 4.34-6.084 6.51-4.346 4.05 3.187-2.748 8.258-1.302 30.134 2.315 34.045 2.17 2.318 3.038 6.664 4.195 18.399 1.302 13.473 1.736 15.501 4.051 15.501 1.881 0 3.617-2.752 6.365-10.865 2.17-6.374 5.642-13.038 8.536-16.226 5.063-5.65 9.837-14.487 11.428-21.151.579-2.173 2.749-7.244 4.774-11.155 4.34-8.113 8.246-9.706 14.033-5.94 1.881 1.304 6.076 2.318 9.114 2.318 4.919 0 6.51-.869 10.995-5.795 2.893-3.187 5.208-6.664 5.208-7.823s.723-2.318 1.446-2.607c1.59-.435 7.23-21.297 7.23-26.512 0-1.594 1.88-7.968 4.34-14.053 2.75-7.388 4.49-14.921 5.07-22.455 1.3-19.992 2.31-27.091 4.34-33.755 2.46-7.533 7.95-32.017 8.68-38.391.29-2.463 1.44-6.954 2.31-10.286 1.45-4.781 1.45-7.968-.29-16.66-1.44-7.968-1.73-13.908-.72-23.324 1.59-15.936-1.88-49.547-5.64-55.341-2.32-3.477-3.33-3.767-12.44-3.767-11.43 0-12.01-.724-11.14-13.908.43-6.809.57-7.098 5.06-7.533 6.22-.58 10.27-5.94 17.07-22.6 4.77-11.59 5.21-13.763 4.77-23.904-.29-6.085-1.44-14.053-2.6-17.819-1.88-6.23-1.74-7.534.87-15.067 3.33-9.996 6.65-12.749 10.41-8.547 2.32 2.607 2.61 4.78 1.6 22.455-.44 10.72-1.6 22.165-2.46 25.352-.87 3.188-1.88 12.604-2.17 21.007-.44 8.402-1.45 17.529-2.32 20.282-2.6 8.258-2.02 11.445 2.03 12.459 2.02.434 4.48 2.608 5.49 4.781 1.31 2.752 2.75 3.621 5.36 3.332 4.77-.58 5.78-2.608 5.49-11.88-.29-6.519.58-9.706 4.49-17.384 4.63-8.982 4.77-10.141 4.63-23.904-.29-9.852-1.01-15.502-2.46-17.675-3.76-5.939-1.74-20.861 4.19-29.553 1.6-2.463 2.75-7.389 3.04-13.763.29-5.505 1.3-12.025 2.17-14.632 2.03-5.216.58-9.562-4.19-12.025-2.32-1.159-2.9-3.042-2.9-8.257 0-5.361.87-7.534 4.49-11.735 4.34-4.926 4.48-5.36 3.61-16.081-1.44-18.833-1.59-20.282-3.47-22.165-2.89-2.898-17.79-2.318-22.57.724-5.06 3.332-5.93 6.085-4.34 12.459 1.89 6.809 1.02 10.286-2.45 10.286-3.33 0-4.92-5.215-3.77-13.328 1.02-7.678-2.02-12.749-7.66-12.749-2.17 0-4.78 1.014-5.79 2.173s-2.89 2.173-4.2 2.173c-1.3 0-4.19 1.014-6.51 2.173-2.17 1.159-4.62 1.884-5.2 1.449-.73-.435-2.318-4.056-3.62-7.968s-3.038-7.533-3.761-7.968c-.723-.58-1.302-13.038-1.302-28.105 0-25.352-.145-27.526-3.038-31.147-2.17-2.753-3.761-3.622-6.365-2.898-1.736.435-3.617.145-4.196-.58-.434-.724-4.34.435-9.114 2.753-4.629 2.318-8.969 4.202-9.837 4.202-.723.144-2.749 1.883-4.34 3.911-8.246 10.576-11.863 13.908-14.322 13.039-2.315-.87-2.604-2.898-2.17-16.66.145-8.548-.434-18.11-1.302-21.297s-1.881-7.388-2.315-9.417-4.05-7.533-8.101-12.314c-3.906-4.635-7.233-9.996-7.233-11.88 0-1.738 2.314-8.257 5.208-14.486l5.208-11.3-1.013-16.66c-1.157-21.152-3.617-26.077-12.731-26.077-3.327 0-7.667 1.014-9.692 2.173m-225.97 17.819c-2.17 1.448-5.786 5.794-7.812 9.85-2.17 3.912-4.774 8.693-5.786 10.721-1.158 2.029-2.026 6.085-2.026 8.982 0 2.898-.578 6.81-1.302 8.693-.723 1.883-1.736 5.07-2.314 7.388-.434 2.173-3.762 6.664-7.234 9.996-3.616 3.477-6.51 6.954-6.51 7.968s-.578 3.043-1.302 4.491c-.868 1.304-1.88 4.926-2.314 7.823-.579 3.477-1.736 5.65-3.472 6.23-5.642 1.738-7.378 5.94-9.548 21.876-4.63 36.218-6.655 46.648-10.706 56.355-1.446 3.622-2.314 9.851-2.314 17.384 0 10.721.434 12.314 4.05 17.095 3.183 4.201 3.906 6.664 3.906 13.183 0 7.244.579 8.693 5.064 13.763 3.906 4.346 5.063 6.809 5.063 11.3 0 6.375 2.025 9.127 6.655 9.127 3.327 0 7.812-7.243 7.812-12.604 0-3.187 4.195-7.678 7.088-7.678.868 0 3.328-1.738 5.208-3.766 2.749-3.043 3.617-5.506 3.617-10.576 0-7.533.579-8.403 13.454-16.081 4.629-2.752 9.259-6.374 10.271-7.968 3.183-5.07 6.51-18.399 7.234-29.988.434-8.548 1.591-12.894 4.629-18.399 3.472-6.52 3.761-8.258 3.038-17.82-.868-11.3 1.013-23.758 4.051-27.235 2.314-2.608 3.472-16.08 4.484-49.257 1.013-32.886-1.591-40.853-13.598-41.288-2.894-.145-7.668-.724-10.416-1.304-3.762-.724-6.076-.29-8.97 1.739M452.647-36.918c-3.906 1.014-7.378 3.332-11.139 7.533-3.038 3.332-5.498 6.52-5.498 7.099s-3.906 7.533-8.68 15.356c-4.774 7.968-8.68 15.067-8.68 15.936 0 1.594-9.258 8.982-11.428 8.982-2.46 0-4.196 4.781-5.208 14.487-1.013 8.548-2.46 15.212-6.655 28.395-.723 2.463-1.447 11.59-1.591 20.282-.145 18.689-1.447 22.6-11.14 33.466-9.692 10.865-10.994 14.197-13.888 34.914-3.327 23.469-2.459 37.522 2.894 48.242 2.314 4.346 4.629 9.707 5.208 12.169.578 2.318 3.182 9.852 5.642 16.661 2.604 6.809 5.497 15.501 6.654 19.557q7.596 28.902 7.812 34.77c.145 6.374 1.881 8.547 5.932 7.243 7.088-2.173 10.126-7.243 15.19-24.628 2.748-9.706 10.705-19.558 15.768-19.558 1.736 0 4.196 1.159 5.353 2.463 5.497 6.374 6.221 9.562 6.365 33.9.29 21.296.724 24.773 3.328 29.989 3.472 6.809 6.944 9.271 10.416 7.533 1.302-.724 5.208-6.085 8.68-11.88 3.472-5.794 7.378-11.734 8.68-13.183s4.774-8.692 7.812-15.936c2.893-7.388 6.22-15.501 7.378-18.109 1.157-2.607 2.025-7.533 2.025-11.01 0-4.346.868-6.954 2.893-8.837 1.592-1.449 3.038-2.318 3.328-2.028 5.642 7.823 5.931 9.127 6.365 33.175.289 23.18 2.604 38.536 7.523 51.14.868 2.318 1.591 6.664 1.591 9.851 0 6.954 5.787 16.805 10.995 18.689 2.025.869 5.208 1.014 7.233.579 5.208-1.304 12.152-10.431 12.152-15.936 0-2.463 1.302-8.982 2.893-14.487 1.736-5.505 3.762-12.604 4.63-15.791 1.591-5.36 6.365-15.067 8.39-16.66.579-.435 2.17-3.622 3.617-7.244 2.315-5.65 2.604-11.155 2.749-41.288.144-25.932.723-35.639 2.17-38.246 2.314-4.202 2.459-64.323.144-70.698-.868-2.173-3.906-7.388-6.654-11.445-4.63-6.664-5.932-7.533-12.876-9.127-4.34-1.014-8.246-2.462-8.68-3.187-5.352-8.402-29.078 25.063-33.996 47.953-1.013 4.346-3.038 9.996-4.485 12.459-2.315 3.911-2.749 7.533-2.749 27.236 0 12.459-.578 22.6-1.157 22.6-1.591 0-4.485-17.24-5.497-32.597-.579-8.982-.145-16.08 1.302-23.034 1.88-8.837 2.025-11.735 0-24.628-1.158-8.113-3.328-16.95-4.919-19.848-3.472-6.809-3.472-9.127.289-16.95 2.749-5.36 3.038-7.678 2.026-15.936-.579-5.36-1.302-18.254-1.592-28.54-.723-30.133-4.484-53.892-11.428-73.884-5.787-16.66-8.102-19.558-15.624-19.413-3.328.145-8.68.724-11.863 1.449m-206.15 147.913c0 1.015-2.025 5.795-4.34 10.576s-4.34 9.417-4.34 10.141c0 .869-1.881 3.187-4.195 5.215-2.749 2.463-6.366 9.127-10.706 19.993-8.535 21.296-11.573 23.759-20.976 16.515-4.196-3.042-5.498-3.477-7.668-2.173-1.446 1.014-3.472 1.739-4.484 1.739-2.604 0-9.838 7.533-9.838 10.285 0 1.449-.578 2.753-1.446 3.043-2.026.724-7.089 15.791-7.378 22.31-.29 5.94-3.617 17.385-8.246 28.105-2.026 4.926-2.894 11.155-3.472 24.918-.434 10.141-1.447 19.268-2.17 20.282-.868 1.014-2.026 4.781-2.604 8.403-1.013 7.098-1.881 10.575-6.076 23.903-2.315 7.679-2.604 13.618-2.315 54.617.145 39.84.579 46.939 2.749 52.878 3.761 10.286 4.918 11.155 16.058 11.155l9.837.145.868 7.968c1.447 11.735.434 14.487-4.919 14.487-4.774 0-12.586 6.085-12.586 9.707 0 1.159-1.88 6.084-4.195 11.01-6.655 14.632-7.957 19.558-6.221 25.498 3.328 11.589 4.63 25.497 2.894 31.437-2.17 7.243-5.353 11.01-8.97 10.431-2.893-.435-3.038-1.594-3.472-19.124-.289-12.893.29-21.006 1.736-26.076 1.158-4.057 2.46-15.936 3.038-26.222.579-10.431 1.592-19.558 2.46-20.572.723-.869 1.157-3.912.868-6.519-.29-3.622-1.158-4.926-3.472-5.216-1.736-.289-3.762-2.028-4.63-4.056q-1.736-3.477-5.208-3.477c-4.34 0-7.378 6.664-6.076 13.328 1.013 5.505-2.459 15.936-7.522 22.166-2.894 3.476-3.328 5.215-2.46 10.141.434 3.187.868 8.257.724 11.3 0 3.042.868 9.271 2.17 13.762 2.893 9.852 2.025 18.109-3.183 29.12-2.025 4.346-3.906 11.155-4.195 15.211-.145 4.057-.868 10.721-1.302 14.632-.868 6.519-.579 7.534 2.748 10.721 4.919 4.636 5.208 13.618.724 18.398-4.63 4.926-5.642 12.749-3.762 27.381l1.736 13.039 5.932 2.028c5.352 1.883 6.51 1.738 12.586-.724 7.956-3.333 9.837-6.809 8.68-16.516-.868-7.243-.724-7.533 2.604-6.954 3.182.435 3.472 1.159 3.906 10.576.434 10.141 2.748 15.211 7.088 15.211 1.013 0 4.34-1.593 7.378-3.332 8.246-5.215 14.033-5.939 16.492-2.028 6.221 9.707 7.378 16.805 7.523 43.751.145 19.993.579 26.947 2.17 28.685 2.17 2.753 12.875 3.332 17.215 1.159 1.302-.724 5.498-2.608 9.259-4.346 4.629-2.173 8.969-5.94 13.02-11.155 9.259-11.88 10.416-10.721 11.429 11.734 1.157 25.063 4.195 35.639 11.718 40.999 3.182 2.318 6.944 9.272 6.944 13.039 0 1.448-2.315 7.098-5.064 12.748-4.484 8.982-5.063 11.155-4.918 21.586 0 15.501 1.736 24.773 5.208 29.409 2.604 3.332 3.906 3.912 9.258 3.477 7.378-.435 19.53-7.099 23.726-12.749 1.591-2.173 5.208-6.809 8.101-10.286 8.101-9.851 11.429-17.674 11.429-26.946 0-4.491.578-8.402 1.302-8.837.578-.434 1.591-3.477 2.025-6.664.434-3.622 2.459-7.678 5.208-10.865 3.472-3.912 4.485-6.52 4.485-11.011 0-5.939 3.906-11.3 8.246-11.444 1.012 0 4.484-5.506 7.812-12.315 5.642-11.734 6.22-12.314 10.705-12.314 11.718 0 18.662-6.229 20.109-17.819 1.012-7.388 1.446-8.402 4.918-9.272 2.17-.434 4.34-1.593 4.919-2.462s1.447-1.159 1.881-.58c.434.435-1.158 3.767-3.617 7.388-2.315 3.622-4.34 7.968-4.34 9.707 0 1.883-2.893 8.113-6.51 14.197-4.485 7.389-6.51 12.459-6.51 16.081-.145 2.898-1.302 7.823-2.893 11.01-3.038 6.23-3.762 17.095-1.447 23.035 1.591 4.201 6.076 6.954 9.259 5.795 3.038-1.159 8.101-9.562 8.101-13.328 0-1.739 2.749-5.795 6.221-9.272 6.51-6.519 8.824-11.735 13.454-30.858 1.736-7.243 3.761-11.59 7.088-15.211q7.161-7.824 8.246-17.385c.29-2.608 1.447-3.767 4.196-4.056 4.05-.435 6.654-5.216 9.692-18.109 3.472-14.198 1.158-22.6-5.786-20.862-4.051 1.014-8.536 9.417-9.693 18.689l-.868 5.794-4.051-3.187c-3.472-2.752-4.34-2.897-6.365-1.159-1.302 1.014-3.183 4.057-4.34 6.519-3.327 8.113-4.774 5.506-4.774-8.692 0-10.575-.579-14.632-2.893-19.123-1.592-3.187-2.894-8.547-2.894-12.314-.144-12.459-2.604-24.194-6.365-30.278-3.327-5.071-3.617-6.519-2.025-9.272 1.012-2.028 1.591-9.706 1.591-21.296-.145-19.123-1.157-22.89-10.561-39.116-1.591-2.752-2.893-6.519-2.893-8.257 0-5.071-4.485-13.184-7.812-14.053-3.906-1.159-7.523 3.187-9.693 11.155-.868 3.332-3.038 8.838-4.918 12.17s-3.762 8.112-4.34 10.575c-.579 2.318-1.592 4.636-2.315 5.071-.723.579-1.302 2.752-1.302 4.925 0 2.318-.868 4.926-2.025 5.795-1.158 1.014-2.46 5.071-3.038 9.272-.579 4.056-1.592 8.403-2.315 9.706-.579 1.159-1.591 4.636-2.025 7.534-.579 3.911-3.038 7.968-8.536 13.763-4.195 4.635-9.114 11.444-10.994 15.356-4.919 9.996-7.523 12.024-12.876 9.851-4.629-2.028-5.931-5.795-5.931-17.529 0-6.519 4.051-22.31 7.957-31.148 1.012-2.462 3.616-7.968 5.497-12.314 2.025-4.491 5.208-10.431 7.089-13.183 3.472-5.215 8.969-20.862 13.454-38.971 1.446-5.215 3.182-10.43 4.195-11.589 5.642-7.244 6.076-10.721 2.459-28.25-.723-4.057-1.446-13.618-1.446-21.441-.145-14.922-1.592-19.993-7.957-26.802-2.604-2.897-3.183-5.794-3.761-18.833-.724-14.342-1.013-15.501-3.762-15.936-4.195-.579-14.032 9.417-18.517 18.833-3.327 7.099-9.693 15.647-11.718 15.647-1.302 0-.723-5.795 1.302-12.749 1.157-3.767 2.893-9.996 4.051-13.908 1.302-5.215 3.472-8.547 8.101-12.459 5.931-5.36 6.076-5.65 6.076-14.777 0-5.07.868-12.169 2.025-15.791 1.158-3.477 2.46-12.893 2.894-21.006s1.446-17.53 2.314-21.151c3.038-11.735 0-41.144-5.931-58.384-1.881-5.215-2.604-5.795-7.233-6.229-4.774-.435-5.353-1.014-7.234-6.519-1.012-3.332-2.314-14.198-2.748-24.049-.579-14.777-1.158-18.254-3.183-19.558-1.881-1.159-3.183-.869-5.931 1.739-1.881 1.738-3.617 3.187-4.051 3.187-.289 0-.579-8.113-.579-17.964 0-17.385-.144-17.964-3.616-20.862-3.328-2.607-3.617-4.056-3.762-14.632-.144-6.519-.723-13.328-1.157-15.356-.868-3.622-5.208-5.071-5.208-1.884m406.658 145.017q-6.51 4.78-7.812 9.562c-.579 2.607-2.893 7.533-4.919 10.72-2.025 3.332-4.34 8.258-4.918 11.01-1.881 8.548 2.893 38.826 7.522 48.243.724 1.448 1.302 4.056 1.302 5.939s2.026 6.085 4.485 9.417c2.459 3.477 4.774 8.692 5.208 11.88.579 4.201 2.025 6.953 5.353 9.561 11.573 9.417 15.624 13.473 20.687 20.427 4.34 5.94 6.365 7.678 9.548 7.678 2.17 0 3.906-.724 3.906-1.448 0-2.029 5.208-1.884 9.114.289 1.736.87 6.799 4.346 11.139 7.678 4.34 3.333 10.272 7.099 13.02 8.403 6.221 2.608 29.512 4.491 33.129 2.463 1.447-.724 4.051-4.781 5.931-8.837 4.485-10.576 3.762-24.773-1.591-31.872-3.617-4.781-12.297-22.31-15.479-31.003-.868-2.462-1.881-7.098-2.17-10.43-.868-7.389-5.787-18.109-10.127-22.021-3.327-3.042-13.888-11.59-21.411-17.385-2.459-2.028-6.51-6.229-8.824-9.416-5.498-7.678-19.964-22.6-21.99-22.6-.723 0-4.195-2.608-7.522-5.94-8.391-8.258-14.756-8.837-23.581-2.318M34.27 393.351c-8.1 3.187-12.296 8.258-14.176 17.24-.58 2.752-1.592 5.65-2.17 6.519-.58.724-1.592 4.781-2.17 8.837-1.013 8.403.868 11.3 7.522 10.431 3.762-.435 4.05-.145 3.617 4.636-2.17 26.077-2.315 24.918 1.302 24.338 3.472-.434 13.454-15.066 15.19-22.455.579-2.173 3.617-8.837 6.655-14.922 7.378-14.342 9.837-21.151 9.837-28.539 0-6.665-.29-6.809-11.573-8.258-4.63-.58-8.68.145-14.033 2.173m599.643 20.717c-2.314 2.173-4.774 7.968-6.076 14.052-.578 2.753-2.025 4.057-4.774 4.636-6.654 1.449-7.812 3.043-8.68 12.025-1.012 9.996-2.893 12.603-12.875 17.384-4.051 1.884-8.391 4.636-9.837 6.23-3.617 3.911-8.102 17.964-8.102 25.352 0 9.127-2.748 21.007-5.931 26.512-2.315 3.766-2.749 6.954-2.459 18.833.144 11.3-.434 15.791-2.749 22.166-4.195 11.444-6.655 37.521-5.931 63.019.723 27.236 1.88 29.698 13.598 29.698 4.196 0 8.102.58 8.536 1.449 1.302 2.028 8.246 1.739 11.284-.724 6.22-4.636 14.756-23.325 16.058-35.204 1.157-10.721 4.195-16.371 11.139-21.006 4.051-2.753 5.208-4.636 6.51-11.59 1.881-9.417 4.919-14.922 9.114-16.226 1.881-.579 3.183-2.607 3.617-5.505.434-2.608 1.446-9.272 2.314-14.777 3.617-23.904 8.68-49.836 10.995-57.224 3.617-11.88 4.195-21.007 1.447-26.657-1.302-2.752-2.315-5.505-2.315-6.374 0-.724-1.013-2.173-2.17-3.187-1.447-1.159-2.17-4.491-2.17-10.286 0-7.244-.579-8.982-3.906-12.024-2.604-2.463-4.629-6.664-6.221-12.749-1.736-7.244-2.893-9.272-5.352-9.562-1.592-.289-3.906.58-5.064 1.739M73.62 435.943c-2.314 1.159-6.076 2.318-8.246 2.752-3.038.725-4.63 2.753-7.667 9.272-2.025 4.491-4.774 10.141-5.787 12.604-1.157 2.318-2.46 6.664-2.893 9.417-.434 2.752-2.315 7.968-4.195 11.589-11.863 22.6-10.85 19.268-10.995 41.289 0 26.222 3.906 38.391 12.586 38.391 4.63 0 9.259-10.431 10.271-23.614.724-9.562.868-9.996 9.838-19.993 4.918-5.65 11.573-13.907 14.61-18.398l5.498-8.258.434-24.918.579-24.918-3.761-3.767c-4.196-4.056-4.34-4.201-10.272-1.448m730.422 51.139c-1.591 1.015-7.956 11.445-10.56 16.95-.724 1.594-3.038 4.491-5.064 6.375-2.025 2.028-3.761 4.201-3.761 4.925 0 1.304-2.459 7.389-6.51 16.226-5.063 10.865-7.957 20.137-7.957 25.497 0 3.188-1.012 7.389-2.314 9.272-2.46 3.767-2.17 19.268 1.012 46.069.868 7.679 1.158 17.095.579 20.862-3.327 24.773-1.736 49.112 3.761 57.224 3.617 5.071 3.472 9.127-.289 15.212-2.893 4.636-3.038 5.94-1.881 22.6.724 9.706 1.158 19.558 1.013 22.02-.434 6.665 3.617 46.794 5.063 49.691.724 1.304 1.736 5.506 2.315 9.127 1.302 8.403 7.812 25.643 11.718 30.423 4.195 5.216 6.944 5.795 17.071 3.477 10.56-2.462 15.768-7.388 22.712-21.73 2.46-4.926 5.642-10.141 7.089-11.445 1.591-1.449 4.195-5.795 5.787-9.707 2.314-5.07 4.629-7.968 8.824-10.286 6.51-3.766 10.127-10.865 10.127-19.847 0-3.042 1.013-8.692 2.315-12.604 3.616-11.879 5.208-22.165 5.931-39.405l.579-16.515 6.51-6.375c3.472-3.622 6.365-6.954 6.365-7.678 0-.579 1.157-2.173 2.604-3.622 4.919-4.346 8.68-22.31 9.982-48.387.579-11.155.145-14.632-2.459-21.586-1.736-4.636-3.617-8.982-4.34-9.851-.579-.724-1.736-3.767-2.604-6.519s-3.183-9.707-5.353-15.212c-6.365-16.95-12.152-38.825-13.599-51.574-1.302-11.3-2.17-12.894-6.51-12.894-3.472 0-12.441 7.823-12.441 10.866 0 5.794-6.655 21.875-11.284 26.801-5.931 6.809-8.391 7.099-14.177 2.173l-4.196-3.622-.868-24.918c-.868-26.801-2.17-33.32-7.812-39.405-3.616-3.911-4.774-4.346-7.378-2.608M-23.161 672.229c-.434 1.304-.868 4.201-.868 6.519 0 3.187-.724 4.202-2.894 4.202-1.591 0-3.327 1.158-3.906 2.462-.434 1.449-2.025 5.216-3.327 8.403-1.447 3.187-3.038 9.851-3.472 14.922-.579 4.925-2.46 13.907-4.485 19.847-5.208 16.226-5.497 19.413-2.893 33.465 3.182 17.82 4.63 21.586 8.68 23.759 2.025 1.015 3.617 2.463 3.617 3.043 0 .579 1.012 2.028 2.17 3.332 2.604 2.463 9.548 1.014 13.888-2.898 2.459-2.173 2.893-2.173 6.51.725 2.17 1.738 4.34 3.042 5.063 3.042 2.604 0 5.642-4.926 5.642-9.272 0-2.463.578-5.215 1.157-6.084.723-.725 2.46-4.491 3.906-8.403 3.038-8.402 2.315-19.702-2.025-28.829-1.447-3.332-3.617-9.852-4.485-14.632-1.013-4.636-2.893-12.315-4.485-16.806-1.446-4.491-2.893-13.183-3.182-18.978-.434-8.692-1.158-11.734-3.906-15.501-3.762-5.071-9.259-6.23-10.705-2.318"/></g></g><defs><clipPath id="a"><rect width="1024" height="677" fill="#fff" rx="40"/></clipPath><clipPath id="c"><path fill="#fff" d="M-168.696-205.114h1302v1130h-1302z"/></clipPath><filter id="b" width="1277.51" height="1508.79" x="-125.693" y="-402.142" color-interpolation-filters="sRGB" filterUnits="userSpaceOnUse"><feFlood flood-opacity="0" result="BackgroundImageFix"/><feBlend in="SourceGraphic" in2="BackgroundImageFix" result="shape"/><feGaussianBlur result="effect1_foregroundBlur_2266_287" stdDeviation="125"/></filter></defs></svg>